<svg width="207" height="210" viewBox="0 0 207 210" fill="none" xmlns="http://www.w3.org/2000/svg">
<g clip-path="url(#clip0_59_5)">
<path fill-rule="evenodd" clip-rule="evenodd" d="M66.9153 124.114C67.5977 144.805 72.1898 165.78 84.761 180.974C89.3794 186.554 95.2533 190.606 101.217 194.809C101.742 195.178 102.433 195.06 102.757 194.546C103.082 194.034 102.922 193.315 102.399 192.948C96.6152 188.873 90.9009 184.969 86.4276 179.562C74.0448 164.598 69.6989 143.866 69.1264 123.489C69.2917 123.444 69.4584 123.401 69.6251 123.358C73.2899 122.408 77.0601 118.764 80.2938 113.891C84.9897 106.818 88.6275 97.1973 89.4839 90.2285C89.8804 87.0139 89.6606 84.3221 88.8052 82.5948C88.0937 81.1548 86.9831 80.267 85.4422 80.0579C84.1711 79.8882 82.899 80.1711 81.6562 80.8591C79.9979 81.7782 78.3679 83.4443 76.8472 85.6202C71.2196 93.6712 66.9565 108.776 66.8479 115.431C66.8136 117.516 66.8146 119.611 66.8547 121.717C65.8174 122.014 64.8249 122.294 63.8501 122.469C62.4191 122.726 61.0384 122.752 59.6183 122.161C56.997 121.072 55.1447 118.868 53.7951 116.234C51.6318 112.019 50.7494 106.717 50.326 102.648C47.9431 79.7638 58.1015 60.5691 70.9385 45.1082C83.9198 29.4709 99.6623 17.6408 108.272 9.69276C108.714 9.28284 108.725 8.55774 108.295 8.0763C107.867 7.59321 107.158 7.53356 106.714 7.94152C98.0582 15.9337 82.2438 27.8371 69.1948 43.5537C56.0015 59.4466 45.6533 79.2164 48.1019 102.74C48.5549 107.068 49.53 112.705 51.83 117.192C53.4589 120.363 55.7434 122.966 58.8992 124.277C60.7392 125.042 62.5299 125.059 64.3768 124.729C65.2048 124.58 66.0491 124.359 66.9153 124.114ZM69.076 121.096C72.3227 120.187 75.555 116.83 78.4183 112.515C82.9308 105.719 86.442 96.4869 87.267 89.7907C87.542 87.547 87.5241 85.6093 87.0876 84.1906C86.7736 83.1647 86.2305 82.4558 85.3003 82.3314C84.2302 82.1878 83.1809 82.5836 82.1466 83.3187C80.9538 84.1643 79.7978 85.4564 78.6933 87.0392C73.2964 94.7605 69.1865 109.243 69.0832 115.623C69.0546 117.438 69.0515 119.265 69.076 121.096Z" fill="#5919A9"/>
<path fill-rule="evenodd" clip-rule="evenodd" d="M105.073 194.46C104.619 194.681 103.945 194.823 103.222 194.951C101.587 195.242 99.7003 195.35 98.8099 195.434C98.2012 195.493 97.7851 196.051 97.8838 196.682C97.9824 197.313 98.5574 197.775 99.1674 197.718C100.255 197.613 102.755 197.469 104.607 197.035C105.559 196.812 106.356 196.493 106.829 196.117C107.291 195.746 107.469 195.307 107.491 194.843C107.513 194.355 107.314 193.762 106.837 193.118C106.313 192.41 105.382 191.528 104.515 190.45C103.787 189.547 103.092 188.489 102.875 187.238C102.766 186.608 102.186 186.153 101.578 186.224C100.972 186.293 100.565 186.859 100.676 187.487C101.081 189.834 102.661 191.719 103.98 193.158C104.373 193.587 104.825 194.144 105.073 194.46Z" fill="#5919A9"/>
</g>
<defs>
<clipPath id="clip0_59_5">
<rect width="154.715" height="143.93" fill="white" transform="translate(118.097) rotate(55.1364)"/>
</clipPath>
</defs>
</svg>
