<svg width="217" height="214" viewBox="0 0 217 214" fill="none" xmlns="http://www.w3.org/2000/svg">
<path fill-rule="evenodd" clip-rule="evenodd" d="M128.726 71.0184C149.387 72.3347 170.211 77.5676 185.013 90.5986C190.449 95.3859 194.319 101.381 198.337 107.471C198.69 108.007 198.55 108.694 198.027 109.002C197.505 109.311 196.791 109.129 196.44 108.595C192.545 102.689 188.818 96.8581 183.55 92.2212C168.973 79.3855 148.384 74.4061 128.034 73.2093C127.984 73.3731 127.936 73.5384 127.888 73.7037C126.826 77.3377 123.068 80.9944 118.098 84.0772C110.885 88.5541 101.157 91.8953 94.1651 92.5377C90.9398 92.8355 88.256 92.5333 86.5558 91.6253C85.1382 90.87 84.2849 89.7327 84.1231 88.1861C83.9925 86.9104 84.3142 85.6476 85.04 84.4265C86.0095 82.7971 87.7248 81.219 89.9463 79.7657C98.166 74.3875 113.394 70.5894 120.05 70.6849C122.135 70.7145 124.229 70.7797 126.332 70.8843C126.661 69.8566 126.971 68.8732 127.176 67.9042C127.477 66.4818 127.545 65.1025 126.998 63.665C125.99 61.0115 123.844 59.0925 121.252 57.6628C117.106 55.3713 111.833 54.3268 107.779 53.7789C84.9786 50.6956 65.4816 60.2609 49.6344 72.6179C33.6066 85.1138 21.2995 100.486 13.0913 108.848C12.668 109.278 11.9429 109.266 11.4749 108.822C11.0051 108.379 10.9672 107.669 11.3886 107.237C19.6424 98.8306 32.0249 83.3885 48.1341 70.8274C64.424 58.1275 84.5017 48.3901 107.939 51.5587C112.251 52.1441 117.856 53.2915 122.27 55.728C125.39 57.4533 127.921 59.8166 129.135 63.0111C129.843 64.8736 129.805 66.664 129.419 68.4999C129.245 69.323 128.998 70.1601 128.726 71.0184ZM125.644 73.0856C124.636 76.3029 121.181 79.4308 116.78 82.1604C109.849 86.4625 100.514 89.6891 93.7954 90.3084C91.5444 90.5145 89.6081 90.4372 88.2035 89.9574C87.1877 89.6121 86.4957 89.0476 86.3999 88.114C86.2892 87.04 86.717 86.0033 87.4834 84.992C88.3652 83.8257 89.6921 82.7099 91.308 81.6544C99.1911 76.4967 113.793 72.8327 120.173 72.925C121.988 72.952 123.814 73.0049 125.644 73.0856Z" fill="#5919A9"/>
<path fill-rule="evenodd" clip-rule="evenodd" d="M197.87 111.314C198.105 110.867 198.267 110.198 198.417 109.479C198.758 107.854 198.924 105.972 199.035 105.084C199.113 104.478 199.683 104.079 200.311 104.197C200.939 104.315 201.383 104.904 201.307 105.512C201.169 106.595 200.948 109.09 200.458 110.928C200.206 111.872 199.862 112.659 199.472 113.12C199.087 113.571 198.643 113.735 198.178 113.743C197.69 113.75 197.103 113.533 196.474 113.036C195.783 112.491 194.93 111.533 193.879 110.634C192.998 109.878 191.962 109.151 190.719 108.896C190.092 108.768 189.655 108.174 189.745 107.569C189.832 106.965 190.411 106.576 191.035 106.706C193.368 107.183 195.204 108.82 196.602 110.182C197.019 110.588 197.562 111.057 197.87 111.314Z" fill="#5919A9"/>
</svg>
