<svg width="156" height="115" viewBox="0 0 156 115" fill="none" xmlns="http://www.w3.org/2000/svg">
<path fill-rule="evenodd" clip-rule="evenodd" d="M125.055 17.4609C131.926 19.6848 136.519 24.6958 140.995 30.1403C155.671 48.0129 156.337 69.8214 138.58 86.3185C110.988 111.888 60.5212 119.939 28.0581 101.285C20.8659 97.1639 10.8698 92.5518 5.86723 80.4965C1.21255 69.2866 4.471 58.3158 10.4869 48.9625C16.6318 39.3664 25.649 31.4352 32.4324 26.6014C62.0749 5.52426 113.504 -7.07099 150.577 16.7662C151.344 17.2395 152.293 17.0331 152.74 16.3167C153.187 15.6003 152.994 14.652 152.287 14.1947C114.124 -10.3398 61.1246 2.40095 30.6157 24.0917C22.1713 30.1229 10.3749 40.8069 4.41232 53.5337C0.35725 62.2376 -1.01347 71.8784 3.0027 81.6604C8.30691 94.4952 18.8828 99.5643 26.5156 103.946C60.0283 123.208 112.201 114.983 140.658 88.5648C159.766 70.8392 159.152 47.4045 143.368 28.1912C138.565 22.2984 133.486 16.9573 126.028 14.5442C125.206 14.2787 124.323 14.7172 124.104 15.5354C123.825 16.3376 124.293 17.2113 125.055 17.4609Z" fill="#5F21AD"/>
</svg>
