<?xml version="1.0" standalone="no"?><svg xmlns:xlink="http://www.w3.org/1999/xlink" xmlns="http://www.w3.org/2000/svg" viewBox="0 0 600 800" preserveAspectRatio="xMaxYMax slice"><g transform="scale(1.6220600162206003)"><rect x="0" y="0" width="369.90000000000003" height="493.20000000000005" fill="#ffffff"/><rect x="0" y="0" width="123.3" height="123.3" fill="#f2f3fe"/><rect x="0" y="0" width="123.3" height="123.3" fill="#f9f9ff"/><rect x="123.3" y="0" width="123.3" height="123.3" fill="#fcfcfc"/><polygon points="123.3,0 246.6,0 123.3,123.3" fill="#dadbfd"/><rect x="246.6" y="0" width="123.3" height="123.3" fill="#dddefd"/><rect x="246.6" y="0" width="123.3" height="123.3" fill="#d6d7fc"/><rect x="0" y="123.30000000000001" width="123.30000000000001" height="123.30000000000001" fill="#ffffff"/><rect x="0" y="123.3" width="61.65" height="61.65" fill="#fbfbfb"/><path d="M 0 123.3 A 61.65 61.65 0 0 1 61.65 184.95 L 0 184.95" fill="#e8e9fe"/><rect x="61.65" y="123.3" width="61.65" height="61.65" fill="#d0d2fc"/><path d="M 61.65 184.95 A 61.65 61.65 0 0 1  123.3 123.3 L 123.3 184.95" fill="#e9eafe"/><rect x="0" y="184.95" width="61.65" height="61.65" fill="#d4d5fc"/><path d="M 0 246.6 A 61.65 61.65 0 0 0 61.65 184.95 L 0 184.95" fill="#fefefe"/><rect x="61.65" y="184.95" width="61.65" height="61.65" fill="#fefefe"/><path d="M 61.65 184.95 A 61.65 61.65 0 0 0 123.3 246.6 L 123.3 184.95" fill="#dddefd"/><rect x="123.3" y="123.3" width="123.3" height="123.3" fill="#f8f9ff"/><path d="M 123.3 123.3 A 123.3 123.3 0 0 0 246.6 246.6 L 246.6 123.3" fill="#d5d6fc"/><rect x="246.60000000000002" y="123.30000000000001" width="123.30000000000001" height="123.30000000000001" fill="#ffffff"/><rect x="246.6" y="123.3" width="61.65" height="61.65" fill="#dbdcfd"/><path d="M 246.6 123.3 A 61.65 61.65 0 0 0 308.25 184.95 L 308.25 123.3" fill="#fcfcfc"/><rect x="308.25" y="123.3" width="61.65" height="61.65" fill="#fcfcfc"/><path d="M 308.25 184.95 A 61.65 61.65 0 0 0 369.9 123.3 L 308.25 123.3" fill="#eaebfe"/><rect x="246.6" y="184.95" width="61.65" height="61.65" fill="#fdfdfd"/><path d="M 246.6 246.6 A 61.65 61.65 0 0 1  308.25 184.95 L 308.25 246.6" fill="#fbfbfb"/><rect x="308.25" y="184.95" width="61.65" height="61.65" fill="#fefefe"/><path d="M 308.25 184.95 A 61.65 61.65 0 0 1 369.9 246.6 L 308.25 246.6" fill="#fbfbfb"/><rect x="0" y="246.60000000000002" width="123.30000000000001" height="123.30000000000001" fill="#ffffff"/><rect x="0" y="246.6" width="61.65" height="61.65" fill="#e5e6fd"/><path d="M 0 308.25 A 61.65 61.65 0 0 1  61.65 246.6 L 61.65 308.25" fill="#fcfcfc"/><rect x="61.65" y="246.6" width="61.65" height="61.65" fill="#ffffff"/><path d="M 61.65 246.6 A 61.65 61.65 0 0 1 123.3 308.25 L 61.65 308.25" fill="#fcfcfc"/><rect x="0" y="308.25" width="61.65" height="61.65" fill="#f8f9ff"/><path d="M 0 308.25 A 61.65 61.65 0 0 0 61.65 369.9 L 61.65 308.25" fill="#fdfdfd"/><rect x="61.65" y="308.25" width="61.65" height="61.65" fill="#fcfcff"/><path d="M 61.65 369.9 A 61.65 61.65 0 0 0 123.3 308.25 L 61.65 308.25" fill="#fefefe"/><rect x="123.30000000000001" y="246.60000000000002" width="123.30000000000001" height="123.30000000000001" fill="#ffffff"/><rect x="123.3" y="246.6" width="61.65" height="61.65" fill="#fbfbfb"/><polygon points="184.95,246.6 184.95,308.25 123.3,308.25" fill="#d6d8fc"/><rect x="184.95" y="246.6" width="61.65" height="61.65" fill="#fcfcfc"/><polygon points="184.95,246.6 246.6,246.6 184.95,308.25" fill="#fdfdfd"/><rect x="123.3" y="308.25" width="61.65" height="61.65" fill="#f4f5fe"/><polygon points="123.3,308.25 184.95,308.25 184.95,369.9" fill="#fdfdfd"/><rect x="184.95" y="308.25" width="61.65" height="61.65" fill="#d4d6fc"/><polygon points="184.95,308.25 246.6,369.9 184.95,369.9" fill="#fcfcfc"/><rect x="246.6" y="246.6" width="123.3" height="123.3" fill="#fcfcfc"/><rect x="246.6" y="246.6" width="123.3" height="123.3" fill="#f3f4fe"/><rect x="0" y="369.90000000000003" width="123.30000000000001" height="123.30000000000001" fill="#ffffff"/><rect x="0" y="369.9" width="61.65" height="61.65" fill="#fbfbfb"/><path d="M 0 369.9 A 61.65 61.65 0 0 0 61.65 431.54999999999995 L 61.65 369.9" fill="#f9faff"/><rect x="61.65" y="369.9" width="61.65" height="61.65" fill="#ffffff"/><path d="M 61.65 431.54999999999995 A 61.65 61.65 0 0 0 123.3 369.9 L 61.65 369.9" fill="#d9dafd"/><rect x="0" y="431.55" width="61.65" height="61.65" fill="#e2e3fd"/><path d="M 0 493.2 A 61.65 61.65 0 0 1  61.65 431.55 L 61.65 493.2" fill="#d2d4fc"/><rect x="61.65" y="431.55" width="61.65" height="61.65" fill="#fbfbfb"/><path d="M 61.65 431.55 A 61.65 61.65 0 0 1 123.3 493.2 L 61.65 493.2" fill="#fefefe"/><rect x="123.3" y="369.9" width="123.3" height="123.3" fill="#e3e4fd"/><path d="M 123.3 493.2 A 123.3 123.3 0 0 1  246.6 369.9 L 123.3 493.2 A 123.3 123.3 0 0 0 246.6 369.9" fill="#f0f0fe"/><rect x="246.60000000000002" y="369.90000000000003" width="123.30000000000001" height="123.30000000000001" fill="#ffffff"/><rect x="246.6" y="369.9" width="61.65" height="61.65" fill="#d0d2fc"/><path d="M 246.6 369.9 A 61.65 61.65 0 0 1 308.25 431.54999999999995 L 246.6 431.54999999999995" fill="#f2f2fe"/><rect x="308.25" y="369.9" width="61.65" height="61.65" fill="#e9eafe"/><path d="M 308.25 431.54999999999995 A 61.65 61.65 0 0 1  369.9 369.9 L 369.9 431.54999999999995" fill="#eff0fe"/><rect x="246.6" y="431.55" width="61.65" height="61.65" fill="#d1d3fc"/><path d="M 246.6 493.2 A 61.65 61.65 0 0 0 308.25 431.55 L 246.6 431.55" fill="#fafafa"/><rect x="308.25" y="431.55" width="61.65" height="61.65" fill="#e9eafe"/><path d="M 308.25 431.55 A 61.65 61.65 0 0 0 369.9 493.2 L 369.9 431.55" fill="#ffffff"/></g></svg>