<?xml version="1.0" standalone="no"?><svg xmlns:xlink="http://www.w3.org/1999/xlink" xmlns="http://www.w3.org/2000/svg" viewBox="0 0 600 800" preserveAspectRatio="xMaxYMax slice"><g transform="scale(1.6220600162206003)"><rect x="0" y="0" width="369.90000000000003" height="493.20000000000005" fill="#ffffff"/><rect x="0" y="0" width="123.3" height="123.3" fill="#fbf8ff"/><path d="M 0 0 A 123.3 123.3 0 0 1  123.3 123.3 L 0 0 A 123.3 123.3 0 0 0 123.3 123.3" fill="#fbf7ff"/><rect x="123.30000000000001" y="0" width="123.30000000000001" height="123.30000000000001" fill="#ffffff"/><rect x="123.3" y="0" width="61.65" height="61.65" fill="#faf5ff"/><polygon points="184.95,0 184.95,61.65 123.3,61.65" fill="#f2edfd"/><rect x="184.95" y="0" width="61.65" height="61.65" fill="#f1ebfd"/><polygon points="184.95,0 246.6,61.65 184.95,61.65" fill="#faf5ff"/><rect x="123.3" y="61.65" width="61.65" height="61.65" fill="#ede5fc"/><polygon points="123.3,61.65 184.95,61.65 123.3,123.3" fill="#eae1fc"/><rect x="184.95" y="61.65" width="61.65" height="61.65" fill="#fcfaff"/><polygon points="184.95,61.65 246.6,61.65 246.6,123.3" fill="#fcf9ff"/><rect x="246.6" y="0" width="123.3" height="123.3" fill="#fefdff"/><polygon points="369.9,0 369.9,123.3 246.6,123.3" fill="#f4f0fd"/><rect x="0" y="123.30000000000001" width="123.30000000000001" height="123.30000000000001" fill="#ffffff"/><rect x="0" y="123.3" width="61.65" height="61.65" fill="#fdfbff"/><path d="M 0 184.95 A 61.65 61.65 0 0 1  61.65 123.3 L 61.65 184.95" fill="#efe8fd"/><rect x="61.65" y="123.3" width="61.65" height="61.65" fill="#fbf8ff"/><path d="M 61.65 123.3 A 61.65 61.65 0 0 1 123.3 184.95 L 61.65 184.95" fill="#efe7fc"/><rect x="0" y="184.95" width="61.65" height="61.65" fill="#f9f6fe"/><path d="M 0 184.95 A 61.65 61.65 0 0 0 61.65 246.6 L 61.65 184.95" fill="#faf6ff"/><rect x="61.65" y="184.95" width="61.65" height="61.65" fill="#f4effd"/><path d="M 61.65 246.6 A 61.65 61.65 0 0 0 123.3 184.95 L 61.65 184.95" fill="#f8f5fe"/><rect x="123.30000000000001" y="123.30000000000001" width="123.30000000000001" height="123.30000000000001" fill="#ffffff"/><rect x="123.3" y="123.3" width="61.65" height="61.65" fill="#fcf9ff"/><path d="M 123.3 184.95 A 61.65 61.65 0 0 0 184.95 123.3 L 123.3 123.3" fill="#faf6ff"/><rect x="184.95" y="123.3" width="61.65" height="61.65" fill="#fbf7ff"/><path d="M 184.95 123.3 A 61.65 61.65 0 0 0 246.6 184.95 L 246.6 123.3" fill="#f9f7fe"/><rect x="123.3" y="184.95" width="61.65" height="61.65" fill="#e5d9fb"/><path d="M 123.3 184.95 A 61.65 61.65 0 0 1 184.95 246.6 L 123.3 246.6" fill="#fffeff"/><rect x="184.95" y="184.95" width="61.65" height="61.65" fill="#ffffff"/><path d="M 184.95 246.6 A 61.65 61.65 0 0 1  246.6 184.95 L 246.6 246.6" fill="#fcfaff"/><rect x="246.60000000000002" y="123.30000000000001" width="123.30000000000001" height="123.30000000000001" fill="#ffffff"/><rect x="246.6" y="123.3" width="61.65" height="61.65" fill="#fbf9fe"/><circle cx="277.425" cy="154.125" r="30.825" fill="#f1ebfd"/><rect x="308.25" y="123.3" width="61.65" height="61.65" fill="#efe9fd"/><rect x="308.25" y="123.3" width="61.65" height="61.65" fill="#f6f2fe"/><rect x="246.6" y="184.95" width="61.65" height="61.65" fill="#efe7fc"/><circle cx="277.425" cy="215.77499999999998" r="30.825" fill="#fcfaff"/><rect x="308.25" y="184.95" width="61.65" height="61.65" fill="#e4d9fb"/><rect x="308.25" y="184.95" width="61.65" height="61.65" fill="#f6f1fe"/><rect x="0" y="246.60000000000002" width="123.30000000000001" height="123.30000000000001" fill="#ffffff"/><rect x="0" y="246.6" width="61.65" height="61.65" fill="#e6dbfb"/><path d="M 0 308.25 A 61.65 61.65 0 0 0 61.65 246.6 L 0 246.6" fill="#eee7fc"/><rect x="61.65" y="246.6" width="61.65" height="61.65" fill="#efe8fc"/><path d="M 61.65 246.6 A 61.65 61.65 0 0 0 123.3 308.25 L 123.3 246.6" fill="#fbf6ff"/><rect x="0" y="308.25" width="61.65" height="61.65" fill="#fcf9ff"/><path d="M 0 308.25 A 61.65 61.65 0 0 1 61.65 369.9 L 0 369.9" fill="#fefdff"/><rect x="61.65" y="308.25" width="61.65" height="61.65" fill="#fefdff"/><path d="M 61.65 369.9 A 61.65 61.65 0 0 1  123.3 308.25 L 123.3 369.9" fill="#fdfbff"/><rect x="123.3" y="246.6" width="123.3" height="123.3" fill="#e5d9fb"/><rect x="123.3" y="246.6" width="123.3" height="123.3" fill="#fefeff"/><rect x="246.60000000000002" y="246.60000000000002" width="123.30000000000001" height="123.30000000000001" fill="#ffffff"/><rect x="246.6" y="246.6" width="61.65" height="61.65" fill="#fcfaff"/><path d="M 246.6 308.25 A 61.65 61.65 0 0 1 308.25 246.6 L 308.25 262.0125 A 46.2375 46.2375 0 0 0 262.0125 308.25" fill="#fdfbff"/><rect x="308.25" y="246.6" width="61.65" height="61.65" fill="#fefdff"/><path d="M 308.25 246.6 A 61.65 61.65 0 0 1 369.9 308.25 L 354.4875 308.25 A 46.2375 46.2375 0 0 0 308.25 262.0125" fill="#ffffff"/><rect x="246.6" y="308.25" width="61.65" height="61.65" fill="#f5f0fd"/><path d="M 246.6 308.25 A 61.65 61.65 0 0 0 308.25 369.9 L 308.25 354.4875 A 46.2375 46.2375 0 0 1 262.0125 308.25" fill="#f2ecfd"/><rect x="308.25" y="308.25" width="61.65" height="61.65" fill="#faf6ff"/><path d="M 308.25 369.9 A 61.65 61.65 0 0 0 369.9 308.25 L 354.4875 308.25 A 46.2375 46.2375 0 0 1 308.25 354.4875" fill="#fbf7ff"/><rect x="0" y="369.90000000000003" width="123.30000000000001" height="123.30000000000001" fill="#ffffff"/><rect x="0" y="369.9" width="61.65" height="61.65" fill="#e5d9fb"/><path d="M 0 431.54999999999995 A 61.65 61.65 0 0 0 61.65 369.9 L 0 369.9" fill="#e7dcfb"/><rect x="61.65" y="369.9" width="61.65" height="61.65" fill="#fbf8ff"/><path d="M 61.65 369.9 A 61.65 61.65 0 0 0 123.3 431.54999999999995 L 123.3 369.9" fill="#e6dbfb"/><rect x="0" y="431.55" width="61.65" height="61.65" fill="#f7f3fe"/><path d="M 0 431.55 A 61.65 61.65 0 0 1 61.65 493.2 L 0 493.2" fill="#eae1fc"/><rect x="61.65" y="431.55" width="61.65" height="61.65" fill="#e6dbfb"/><path d="M 61.65 493.2 A 61.65 61.65 0 0 1  123.3 431.55 L 123.3 493.2" fill="#f4effd"/><rect x="123.30000000000001" y="369.90000000000003" width="123.30000000000001" height="123.30000000000001" fill="#ffffff"/><rect x="123.3" y="369.9" width="61.65" height="61.65" fill="#eae0fc"/><path d="M 123.3 369.9 A 61.65 61.65 0 0 1 184.95 431.54999999999995 L 123.3 431.54999999999995" fill="#fdfbff"/><rect x="184.95" y="369.9" width="61.65" height="61.65" fill="#f7f3fe"/><path d="M 184.95 431.54999999999995 A 61.65 61.65 0 0 1  246.6 369.9 L 246.6 431.54999999999995" fill="#faf6ff"/><rect x="123.3" y="431.55" width="61.65" height="61.65" fill="#eee6fc"/><path d="M 123.3 493.2 A 61.65 61.65 0 0 0 184.95 431.55 L 123.3 431.55" fill="#e9dffb"/><rect x="184.95" y="431.55" width="61.65" height="61.65" fill="#f0eafd"/><path d="M 184.95 431.55 A 61.65 61.65 0 0 0 246.6 493.2 L 246.6 431.55" fill="#f7f3fe"/><rect x="246.6" y="369.9" width="123.3" height="123.3" fill="#f4effd"/><rect x="246.6" y="369.9" width="123.3" height="123.3" fill="#fffeff"/></g></svg>