<?xml version="1.0" standalone="no"?><svg xmlns:xlink="http://www.w3.org/1999/xlink" xmlns="http://www.w3.org/2000/svg" viewBox="0 0 1000 1333.3333333333337" preserveAspectRatio="xMaxYMax slice"><g transform="scale(2.174385736029572)"><rect x="0" y="0" width="459.90000000000003" height="613.2" fill="#ffffff"/><rect x="0" y="0" width="153.3" height="153.3" fill="#ffffff"/><rect x="0" y="0" width="76.65" height="76.65" fill="#f0edfe"/><polygon points="76.65,0 76.65,76.65 0,76.65" fill="#401eee"/><rect x="76.65" y="0" width="76.65" height="76.65" fill="#a291f7"/><polygon points="76.65,0 153.3,0 76.65,76.65" fill="#637ae9"/><rect x="0" y="76.65" width="76.65" height="76.65" fill="#5234f0"/><polygon points="0,76.65 76.65,76.65 76.65,153.3" fill="#dccef3"/><rect x="76.65" y="76.65" width="76.65" height="76.65" fill="#4625ee"/><polygon points="76.65,76.65 153.3,153.3 76.65,153.3" fill="#5739f0"/><rect x="153.3" y="0" width="153.3" height="153.3" fill="#7a62f3"/><polygon points="153.3,0 306.6,0 306.6,153.3" fill="#8455d5"/><rect x="306.6" y="0" width="153.3" height="153.3" fill="#ffffff"/><rect x="306.6" y="0" width="76.65" height="76.65" fill="#c8d0f7"/><path d="M 306.6 76.65 A 76.65 76.65 0 0 1  383.25 0 L 383.25 76.65" fill="#cad1f8"/><rect x="383.25" y="0" width="76.65" height="76.65" fill="#4e2fef"/><path d="M 383.25 0 A 76.65 76.65 0 0 1 459.9 76.65 L 383.25 76.65" fill="#9b89f6"/><rect x="306.6" y="76.65" width="76.65" height="76.65" fill="#bda4e8"/><path d="M 306.6 76.65 A 76.65 76.65 0 0 0 383.25 153.3 L 383.25 76.65" fill="#dad3fc"/><rect x="383.25" y="76.65" width="76.65" height="76.65" fill="#5c74e8"/><path d="M 383.25 153.3 A 76.65 76.65 0 0 0 459.9 76.65 L 383.25 76.65" fill="#9a73dc"/><rect x="0" y="153.3" width="153.3" height="153.3" fill="#788bec"/><polygon points="0,153.3 153.3,153.3 0,306.6" fill="#ded8fc"/><rect x="153.3" y="153.3" width="153.3" height="153.3" fill="#bdb1f9"/><polygon points="153.3,153.3 306.6,153.3 306.6,306.6" fill="#eff1fd"/><rect x="306.6" y="153.3" width="153.3" height="153.3" fill="#ffffff"/><rect x="306.6" y="153.3" width="76.65" height="76.65" fill="#5c74e8"/><path d="M 306.6 229.95000000000002 A 76.65 76.65 0 0 1  383.25 153.3 L 383.25 229.95000000000002" fill="#7d4cd2"/><rect x="383.25" y="153.3" width="76.65" height="76.65" fill="#7f92ed"/><path d="M 383.25 153.3 A 76.65 76.65 0 0 1 459.9 229.95000000000002 L 383.25 229.95000000000002" fill="#9d8bf6"/><rect x="306.6" y="229.95" width="76.65" height="76.65" fill="#7540cf"/><path d="M 306.6 229.95 A 76.65 76.65 0 0 0 383.25 306.6 L 383.25 229.95" fill="#fbfafe"/><rect x="383.25" y="229.95" width="76.65" height="76.65" fill="#fcfdff"/><path d="M 383.25 306.6 A 76.65 76.65 0 0 0 459.9 229.95 L 383.25 229.95" fill="#dad3fc"/><rect x="0" y="306.6" width="153.3" height="153.3" fill="#cbd3f8"/><polygon points="153.3,306.6 153.3,459.90000000000003 0,459.90000000000003" fill="#7589ec"/><rect x="153.3" y="306.6" width="153.3" height="153.3" fill="#c8d0f7"/><path d="M 153.3 306.6 A 153.3 153.3 0 0 1 306.6 459.90000000000003 L 153.3 459.90000000000003" fill="#b6a9f8"/><rect x="306.6" y="306.6" width="153.3" height="153.3" fill="#efecfe"/><polygon points="306.6,306.6 459.90000000000003,306.6 306.6,459.90000000000003" fill="#e4dffd"/><rect x="0" y="459.90000000000003" width="153.3" height="153.3" fill="#ffffff"/><rect x="0" y="459.9" width="76.65" height="76.65" fill="#e7ebfc"/><path d="M 0 459.9 A 76.65 76.65 0 0 1 76.65 536.55 L 0 536.55" fill="#8f9fef"/><rect x="76.65" y="459.9" width="76.65" height="76.65" fill="#ac9df8"/><path d="M 76.65 536.55 A 76.65 76.65 0 0 1  153.3 459.9 L 153.3 536.55" fill="#3c1aee"/><rect x="0" y="536.55" width="76.65" height="76.65" fill="#9c76dd"/><path d="M 0 613.1999999999999 A 76.65 76.65 0 0 0 76.65 536.55 L 0 536.55" fill="#8496ee"/><rect x="76.65" y="536.55" width="76.65" height="76.65" fill="#9dabf1"/><path d="M 76.65 536.55 A 76.65 76.65 0 0 0 153.3 613.1999999999999 L 153.3 536.55" fill="#7e4dd3"/><rect x="153.3" y="459.9" width="153.3" height="153.3" fill="#c0b5f9"/><rect x="153.3" y="459.9" width="153.3" height="153.3" fill="#8670f4"/><rect x="306.6" y="459.9" width="153.3" height="153.3" fill="#5c74e8"/><polygon points="306.6,459.9 459.90000000000003,459.9 306.6,613.2" fill="#9dabf1"/></g></svg>