<?xml version="1.0" standalone="no"?><svg xmlns:xlink="http://www.w3.org/1999/xlink" xmlns="http://www.w3.org/2000/svg" viewBox="0 0 1000 1333.3333333333335" preserveAspectRatio="xMaxYMax slice"><g transform="scale(2.7034333603676672)"><rect x="0" y="0" width="369.90000000000003" height="493.20000000000005" fill="#ffffff"/><rect x="0" y="0" width="123.30000000000001" height="123.30000000000001" fill="#ffffff"/><rect x="0" y="0" width="61.65" height="61.65" fill="#fcfcfc"/><path d="M 0 0 A 61.65 61.65 0 0 0 61.65 61.65 L 61.65 0" fill="#f8f8ff"/><rect x="61.65" y="0" width="61.65" height="61.65" fill="#fbfbfb"/><path d="M 61.65 61.65 A 61.65 61.65 0 0 0 123.3 0 L 61.65 0" fill="#f5f5fe"/><rect x="0" y="61.65" width="61.65" height="61.65" fill="#d6d7fc"/><path d="M 0 123.3 A 61.65 61.65 0 0 1  61.65 61.65 L 61.65 123.3" fill="#fbfbfb"/><rect x="61.65" y="61.65" width="61.65" height="61.65" fill="#d7d8fc"/><path d="M 61.65 61.65 A 61.65 61.65 0 0 1 123.3 123.3 L 61.65 123.3" fill="#fcfcfc"/><rect x="123.30000000000001" y="0" width="123.30000000000001" height="123.30000000000001" fill="#ffffff"/><rect x="123.3" y="0" width="61.65" height="61.65" fill="#fefefe"/><path d="M 123.3 0 A 61.65 61.65 0 0 1 184.95 61.65 L 123.3 61.65" fill="#dadcfd"/><rect x="184.95" y="0" width="61.65" height="61.65" fill="#fbfbfb"/><path d="M 184.95 61.65 A 61.65 61.65 0 0 1  246.6 0 L 246.6 61.65" fill="#fbfbfb"/><rect x="123.3" y="61.65" width="61.65" height="61.65" fill="#d7d9fd"/><path d="M 123.3 123.3 A 61.65 61.65 0 0 0 184.95 61.65 L 123.3 61.65" fill="#d0d2fc"/><rect x="184.95" y="61.65" width="61.65" height="61.65" fill="#fbfbfb"/><path d="M 184.95 61.65 A 61.65 61.65 0 0 0 246.6 123.3 L 246.6 61.65" fill="#e6e7fd"/><rect x="246.6" y="0" width="123.3" height="123.3" fill="#ffffff"/><polygon points="246.6,0 369.9,0 369.9,123.3" fill="#d0d2fc"/><rect x="0" y="123.3" width="123.3" height="123.3" fill="#f3f4fe"/><polygon points="0,123.3 123.3,123.3 0,246.6" fill="#fafafa"/><rect x="123.30000000000001" y="123.30000000000001" width="123.30000000000001" height="123.30000000000001" fill="#ffffff"/><rect x="123.3" y="123.3" width="61.65" height="61.65" fill="#fbfbfb"/><path d="M 123.3 123.3 A 61.65 61.65 0 0 0 184.95 184.95 L 184.95 123.3" fill="#fcfcfc"/><rect x="184.95" y="123.3" width="61.65" height="61.65" fill="#fbfbfb"/><path d="M 184.95 184.95 A 61.65 61.65 0 0 0 246.6 123.3 L 184.95 123.3" fill="#e5e6fd"/><rect x="123.3" y="184.95" width="61.65" height="61.65" fill="#fdfdfd"/><path d="M 123.3 246.6 A 61.65 61.65 0 0 1  184.95 184.95 L 184.95 246.6" fill="#f7f7fe"/><rect x="184.95" y="184.95" width="61.65" height="61.65" fill="#fcfcfc"/><path d="M 184.95 184.95 A 61.65 61.65 0 0 1 246.6 246.6 L 184.95 246.6" fill="#fafafa"/><rect x="246.6" y="123.3" width="123.3" height="123.3" fill="#fcfcfc"/><polygon points="246.6,123.3 369.9,123.3 246.6,246.6" fill="#fbfbfb"/><rect x="0" y="246.6" width="123.3" height="123.3" fill="#fefefe"/><rect x="0" y="246.6" width="123.3" height="123.3" fill="#fefefe"/><rect x="123.3" y="246.6" width="123.3" height="123.3" fill="#fefefe"/><polygon points="123.3,246.6 246.6,246.6 123.3,369.9" fill="#fefefe"/><rect x="246.60000000000002" y="246.60000000000002" width="123.30000000000001" height="123.30000000000001" fill="#ffffff"/><rect x="246.6" y="246.6" width="61.65" height="61.65" fill="#d9dbfd"/><polygon points="308.25,246.6 308.25,308.25 246.6,308.25" fill="#fbfbfb"/><rect x="308.25" y="246.6" width="61.65" height="61.65" fill="#fbfbfb"/><polygon points="308.25,246.6 369.9,308.25 308.25,308.25" fill="#d4d6fc"/><rect x="246.6" y="308.25" width="61.65" height="61.65" fill="#fcfcfc"/><polygon points="246.6,308.25 308.25,308.25 246.6,369.9" fill="#fafafa"/><rect x="308.25" y="308.25" width="61.65" height="61.65" fill="#edeefe"/><polygon points="308.25,308.25 369.9,308.25 369.9,369.9" fill="#fdfdfd"/><rect x="0" y="369.90000000000003" width="123.30000000000001" height="123.30000000000001" fill="#ffffff"/><rect x="0" y="369.9" width="61.65" height="61.65" fill="#f1f2fe"/><polygon points="61.65,369.9 61.65,431.54999999999995 0,431.54999999999995" fill="#d4d6fc"/><rect x="61.65" y="369.9" width="61.65" height="61.65" fill="#fcfcfc"/><polygon points="61.65,369.9 123.3,431.54999999999995 61.65,431.54999999999995" fill="#d6d8fc"/><rect x="0" y="431.55" width="61.65" height="61.65" fill="#d3d5fc"/><polygon points="0,431.55 61.65,431.55 61.65,493.2" fill="#fefefe"/><rect x="61.65" y="431.55" width="61.65" height="61.65" fill="#f5f6fe"/><polygon points="61.65,431.55 123.3,431.55 61.65,493.2" fill="#f2f2fe"/><rect x="123.30000000000001" y="369.90000000000003" width="123.30000000000001" height="123.30000000000001" fill="#ffffff"/><rect x="123.3" y="369.9" width="61.65" height="61.65" fill="#dddefd"/><path d="M 123.3 369.9 A 61.65 61.65 0 0 1 184.95 431.54999999999995 L 123.3 431.54999999999995" fill="#fafbff"/><rect x="184.95" y="369.9" width="61.65" height="61.65" fill="#fefefe"/><path d="M 184.95 431.54999999999995 A 61.65 61.65 0 0 1  246.6 369.9 L 246.6 431.54999999999995" fill="#fdfdfd"/><rect x="123.3" y="431.55" width="61.65" height="61.65" fill="#e6e7fd"/><path d="M 123.3 493.2 A 61.65 61.65 0 0 0 184.95 431.55 L 123.3 431.55" fill="#fbfbfb"/><rect x="184.95" y="431.55" width="61.65" height="61.65" fill="#fbfbfb"/><path d="M 184.95 431.55 A 61.65 61.65 0 0 0 246.6 493.2 L 246.6 431.55" fill="#eeeffe"/><rect x="246.60000000000002" y="369.90000000000003" width="123.30000000000001" height="123.30000000000001" fill="#ffffff"/><rect x="246.6" y="369.9" width="61.65" height="61.65" fill="#fafaff"/><path d="M 246.6 431.54999999999995 A 61.65 61.65 0 0 1 308.25 369.9 L 308.25 385.3125 A 46.2375 46.2375 0 0 0 262.0125 431.54999999999995" fill="#f3f4fe"/><rect x="308.25" y="369.9" width="61.65" height="61.65" fill="#fefefe"/><path d="M 308.25 369.9 A 61.65 61.65 0 0 1 369.9 431.54999999999995 L 354.4875 431.54999999999995 A 46.2375 46.2375 0 0 0 308.25 385.3125" fill="#fbfbfb"/><rect x="246.6" y="431.55" width="61.65" height="61.65" fill="#fcfcfc"/><path d="M 246.6 431.55 A 61.65 61.65 0 0 0 308.25 493.2 L 308.25 477.7875 A 46.2375 46.2375 0 0 1 262.0125 431.55" fill="#d2d4fc"/><rect x="308.25" y="431.55" width="61.65" height="61.65" fill="#fcfcfc"/><path d="M 308.25 493.2 A 61.65 61.65 0 0 0 369.9 431.55 L 354.4875 431.55 A 46.2375 46.2375 0 0 1 308.25 477.7875" fill="#e6e7fd"/></g></svg>